<?xml version="1.0" encoding="utf-8"?>
<!-- Generator: Adobe Illustrator 21.0.0, SVG Export Plug-In . SVG Version: 6.00 Build 0)  -->
<svg version="1.1" id="Layer_1" xmlns="http://www.w3.org/2000/svg" xmlns:xlink="http://www.w3.org/1999/xlink" x="0px" y="0px"
	 viewBox="0 0 256 62" style="enable-background:new 0 0 256 62;" xml:space="preserve">
<style type="text/css">
	.st0{fill:#F05C61;}
	.st1{fill:#58595B;}
	.st2{fill:#6D6E70;}
</style>
<g>
	<g>
		<g>
			<path class="st0" d="M53,59.1l-4-14.5c-0.3-1-1.3-1.6-2.3-1.3c-1,0.3-1.6,1.3-1.3,2.3l2.2,7.6l0.5,1.5c0.1,0.6-0.4,0.3-0.4,0.3
				l-0.8-0.5l0,0L46,53.9l-1-0.7c0,0,0,0,0,0l-5.7-3.8c-0.9-0.6-1.8-0.2-2.6,0.2c-1.4,0.7-2.9,1.3-4.7,1.7c-2,0.5-4.2,0.7-6.5,0.7
				c-3,0-5.7-0.5-8.2-1.5c-2.5-1-4.6-2.4-6.4-4.3c-1.8-1.9-3.2-4.1-4.2-6.7c-1-2.6-1.5-5.6-1.5-9c0-4,0.6-7.7,1.9-10.9
				c1.3-3.3,3-6,5.2-8.3c2.2-2.3,4.7-4,7.6-5.3c2.9-1.2,5.9-1.9,9.2-1.9c3.1,0,5.8,0.5,8.2,1.5c2.4,1,4.4,2.3,6,4.1
				c1.6,1.7,2.7,3.2,4.1,6c0,0,7.7,16.9-13.1,22.2c2.3-3.8,2.7-6.8,2.7-9.2c0-4.2-2-7.6-6.7-7.6c-1.3,0-2.4,0.1-3.4,0.4
				c2.7-8,2.8-8.2,2.8-8.4c0-1.1-1.2-1.7-2.5-1.7c-1.3,0-2.7,0.6-3.1,1.8c-0.8,2.2-1.5,4.7-4.7,16.4c-0.9,3.3-1.3,6-1.3,8.2
				c0,5,2.2,7.3,5.9,7.3c3.5,0,6.5-1.9,8.8-4.8c0,0,0.4,0,1-0.1c0.1,0,0.3,0,0.4-0.1C39.4,39.4,57.6,34.7,51,14c0,0-1.1-3-4.2-6.5
				c-2-2.2-5.1-4.2-8-5.3c-2.8-1.1-6-1.7-9.4-1.7C25,0.5,21,1.3,17.4,3c-3.6,1.6-6.6,3.8-9.1,6.6c-2.5,2.8-4.5,6-5.8,9.7
				C1.1,23,0.4,26.9,0.4,31c0,3.8,0.7,7.2,1.9,10.3c1.3,3.1,3,5.7,5.2,7.8c2.2,2.1,4.7,3.8,7.6,5c2.9,1.2,6,1.7,9.3,1.7
				c2.7,0,5.2-0.2,7.4-0.7c2-0.4,4-1.1,6-2.1l12.3,8.2c0.3,0.2,0.7,0.3,1,0.3c0.4,0,0.8-0.1,1.1-0.4C52.9,60.7,53.2,59.9,53,59.1
				 M25.3,42.8c-2,0-2.8-1.6-2.8-4.2c0-0.7,0.1-1.4,0.2-2.3c1.4,1.8,3.3,3.2,5.7,3.7C27.6,41.7,26.5,42.8,25.3,42.8 M29.2,38.2
				c-3.5-1.1-4.9-4.3-4.9-7.5c0-4,2-7.7,4.4-7.7c1.6,0.1,2.3,2.4,2.3,5.4C31.1,31.5,30.4,35.3,29.2,38.2"/>
		</g>
	</g>
	<g>
		<path class="st0" d="M74.3,17.6c0.5-0.3,1.2-0.7,2.2-1c1-0.3,2.1-0.5,3.4-0.5c1.6,0,3.1,0.3,4.3,0.9c1.3,0.6,2.3,1.4,3.2,2.4
			c0.9,1,1.5,2.3,2,3.7c0.4,1.4,0.7,3,0.7,4.8c0,1.8-0.3,3.5-0.8,4.9c-0.5,1.5-1.3,2.7-2.3,3.7c-1,1-2.2,1.8-3.6,2.3
			c-1.4,0.5-2.9,0.8-4.7,0.8c-1.9,0-3.5-0.1-5-0.4c-1.4-0.3-2.6-0.5-3.6-0.8V6.1l4-0.7V17.6z M74.3,35.6c0.4,0.1,1,0.2,1.7,0.3
			c0.7,0.1,1.7,0.2,2.8,0.2c2.2,0,3.9-0.7,5.2-2.1c1.3-1.4,2-3.5,2-6.1c0-1.2-0.1-2.2-0.3-3.3c-0.2-1-0.6-1.9-1.1-2.6
			c-0.5-0.7-1.2-1.3-2-1.7c-0.8-0.4-1.8-0.6-3-0.6c-1.1,0-2.1,0.2-3,0.6c-0.9,0.4-1.6,0.8-2.1,1.2V35.6z"/>
		<path class="st0" d="M102.5,39.5c-2.5-0.1-4.3-0.6-5.3-1.6c-1-1-1.6-2.6-1.6-4.7V6.1l4-0.7v27.1c0,0.7,0.1,1.2,0.2,1.6
			c0.1,0.4,0.3,0.8,0.6,1c0.3,0.3,0.6,0.5,1,0.6c0.4,0.1,1,0.2,1.6,0.3L102.5,39.5z"/>
		<path class="st0" d="M114.9,16c1.6,0,3,0.2,4.1,0.6c1.1,0.4,2,1,2.7,1.8c0.7,0.8,1.2,1.7,1.5,2.7c0.3,1.1,0.4,2.2,0.4,3.5v14.1
			c-0.3,0.1-0.8,0.1-1.5,0.2c-0.6,0.1-1.3,0.2-2.1,0.3s-1.6,0.2-2.5,0.2c-0.9,0.1-1.8,0.1-2.7,0.1c-1.3,0-2.4-0.1-3.5-0.4
			c-1.1-0.3-2-0.7-2.8-1.2c-0.8-0.6-1.4-1.3-1.8-2.2c-0.4-0.9-0.7-2-0.7-3.3c0-1.2,0.3-2.3,0.8-3.2c0.5-0.9,1.2-1.6,2.1-2.2
			c0.9-0.5,1.9-1,3-1.2c1.2-0.3,2.4-0.4,3.6-0.4c0.4,0,0.8,0,1.3,0.1c0.4,0,0.8,0.1,1.2,0.2c0.4,0.1,0.7,0.1,1,0.2
			c0.3,0.1,0.5,0.1,0.6,0.1v-1.1c0-0.7-0.1-1.3-0.2-2c-0.1-0.7-0.4-1.2-0.8-1.7c-0.4-0.5-0.9-0.9-1.5-1.2c-0.7-0.3-1.5-0.5-2.5-0.5
			c-1.3,0-2.5,0.1-3.5,0.3c-1,0.2-1.7,0.4-2.2,0.6l-0.5-3.3c0.5-0.2,1.4-0.5,2.6-0.7C112.2,16.1,113.5,16,114.9,16z M115.3,36.2
			c1,0,1.8,0,2.5-0.1c0.7,0,1.4-0.1,1.8-0.2v-6.7c-0.3-0.1-0.8-0.3-1.4-0.4c-0.7-0.1-1.4-0.2-2.4-0.2c-0.6,0-1.3,0-1.9,0.1
			c-0.7,0.1-1.3,0.3-1.9,0.5c-0.6,0.3-1,0.7-1.4,1.1c-0.4,0.5-0.6,1.1-0.6,1.9c0,1.4,0.5,2.5,1.4,3
			C112.4,35.9,113.7,36.2,115.3,36.2z"/>
	</g>
	<g>
	</g>
	<g>
		<path class="st0" d="M139.8,17.6c0.5-0.3,1.2-0.7,2.2-1c1-0.3,2.1-0.5,3.4-0.5c1.6,0,3.1,0.3,4.3,0.9c1.3,0.6,2.3,1.4,3.2,2.4
			c0.9,1,1.5,2.3,2,3.7c0.4,1.4,0.7,3,0.7,4.8c0,1.8-0.3,3.5-0.8,4.9c-0.5,1.5-1.3,2.7-2.3,3.7c-1,1-2.2,1.8-3.6,2.3
			c-1.4,0.5-2.9,0.8-4.7,0.8c-1.9,0-3.5-0.1-5-0.4c-1.4-0.3-2.6-0.5-3.6-0.8V6.1l4-0.7V17.6z M139.8,35.6c0.4,0.1,1,0.2,1.7,0.3
			c0.7,0.1,1.7,0.2,2.8,0.2c2.2,0,3.9-0.7,5.2-2.1c1.3-1.4,2-3.5,2-6.1c0-1.2-0.1-2.2-0.3-3.3c-0.2-1-0.6-1.9-1.1-2.6
			c-0.5-0.7-1.2-1.3-2-1.7c-0.8-0.4-1.8-0.6-3-0.6c-1.1,0-2.1,0.2-3,0.6c-0.9,0.4-1.6,0.8-2.1,1.2V35.6z"/>
		<path class="st0" d="M168.1,39.5c-2.5-0.1-4.3-0.6-5.3-1.6c-1-1-1.6-2.6-1.6-4.7V6.1l4-0.7v27.1c0,0.7,0.1,1.2,0.2,1.6
			c0.1,0.4,0.3,0.8,0.6,1c0.3,0.3,0.6,0.5,1,0.6c0.4,0.1,1,0.2,1.6,0.3L168.1,39.5z"/>
		<path class="st0" d="M180.5,16c1.6,0,3,0.2,4.1,0.6c1.1,0.4,2,1,2.7,1.8c0.7,0.8,1.2,1.7,1.5,2.7c0.3,1.1,0.4,2.2,0.4,3.5v14.1
			c-0.3,0.1-0.8,0.1-1.5,0.2c-0.6,0.1-1.3,0.2-2.1,0.3s-1.6,0.2-2.5,0.2c-0.9,0.1-1.8,0.1-2.7,0.1c-1.3,0-2.4-0.1-3.5-0.4
			c-1.1-0.3-2-0.7-2.8-1.2c-0.8-0.6-1.4-1.3-1.8-2.2c-0.4-0.9-0.7-2-0.7-3.3c0-1.2,0.3-2.3,0.8-3.2c0.5-0.9,1.2-1.6,2.1-2.2
			c0.9-0.5,1.9-1,3-1.2c1.2-0.3,2.4-0.4,3.6-0.4c0.4,0,0.8,0,1.3,0.1c0.4,0,0.8,0.1,1.2,0.2c0.4,0.1,0.7,0.1,1,0.2
			c0.3,0.1,0.5,0.1,0.6,0.1v-1.1c0-0.7-0.1-1.3-0.2-2c-0.1-0.7-0.4-1.2-0.8-1.7c-0.4-0.5-0.9-0.9-1.5-1.2c-0.7-0.3-1.5-0.5-2.5-0.5
			c-1.3,0-2.5,0.1-3.5,0.3c-1,0.2-1.7,0.4-2.2,0.6l-0.5-3.3c0.5-0.2,1.4-0.5,2.6-0.7C177.8,16.1,179.1,16,180.5,16z M180.8,36.2
			c1,0,1.8,0,2.5-0.1c0.7,0,1.4-0.1,1.8-0.2v-6.7c-0.3-0.1-0.8-0.3-1.4-0.4c-0.7-0.1-1.4-0.2-2.4-0.2c-0.6,0-1.3,0-1.9,0.1
			c-0.7,0.1-1.3,0.3-1.9,0.5c-0.6,0.3-1,0.7-1.4,1.1c-0.4,0.5-0.6,1.1-0.6,1.9c0,1.4,0.5,2.5,1.4,3C178,35.9,179.2,36.2,180.8,36.2z
			"/>
	</g>
	<g>
	</g>
	<g>
		<path class="st1" d="M208.2,39.5c-2.5-0.1-4.3-0.6-5.3-1.6c-1-1-1.6-2.6-1.6-4.7V6.1l4-0.7v27.1c0,0.7,0.1,1.2,0.2,1.6
			c0.1,0.4,0.3,0.8,0.6,1c0.3,0.3,0.6,0.5,1,0.6c0.4,0.1,1,0.2,1.6,0.3L208.2,39.5z"/>
		<path class="st1" d="M220.5,16c1.6,0,3,0.2,4.1,0.6c1.1,0.4,2,1,2.7,1.8c0.7,0.8,1.2,1.7,1.5,2.7c0.3,1.1,0.4,2.2,0.4,3.5v14.1
			c-0.3,0.1-0.8,0.1-1.5,0.2c-0.6,0.1-1.3,0.2-2.1,0.3s-1.6,0.2-2.5,0.2c-0.9,0.1-1.8,0.1-2.7,0.1c-1.3,0-2.4-0.1-3.5-0.4
			c-1.1-0.3-2-0.7-2.8-1.2c-0.8-0.6-1.4-1.3-1.8-2.2c-0.4-0.9-0.7-2-0.7-3.3c0-1.2,0.3-2.3,0.8-3.2c0.5-0.9,1.2-1.6,2.1-2.2
			c0.9-0.5,1.9-1,3-1.2c1.2-0.3,2.4-0.4,3.6-0.4c0.4,0,0.8,0,1.3,0.1c0.4,0,0.8,0.1,1.2,0.2c0.4,0.1,0.7,0.1,1,0.2
			c0.3,0.1,0.5,0.1,0.6,0.1v-1.1c0-0.7-0.1-1.3-0.2-2c-0.1-0.7-0.4-1.2-0.8-1.7c-0.4-0.5-0.9-0.9-1.5-1.2c-0.7-0.3-1.5-0.5-2.5-0.5
			c-1.3,0-2.5,0.1-3.5,0.3c-1,0.2-1.7,0.4-2.2,0.6L214,17c0.5-0.2,1.4-0.5,2.6-0.7C217.8,16.1,219.1,16,220.5,16z M220.9,36.2
			c1,0,1.8,0,2.5-0.1c0.7,0,1.4-0.1,1.8-0.2v-6.7c-0.3-0.1-0.8-0.3-1.4-0.4c-0.7-0.1-1.4-0.2-2.4-0.2c-0.6,0-1.3,0-1.9,0.1
			c-0.7,0.1-1.3,0.3-1.9,0.5c-0.6,0.3-1,0.7-1.4,1.1c-0.4,0.5-0.6,1.1-0.6,1.9c0,1.4,0.5,2.5,1.4,3C218,35.9,219.3,36.2,220.9,36.2z
			"/>
		<path class="st1" d="M239.9,17.6c0.5-0.3,1.2-0.7,2.2-1c1-0.3,2.1-0.5,3.4-0.5c1.6,0,3.1,0.3,4.3,0.9c1.3,0.6,2.3,1.4,3.2,2.4
			c0.9,1,1.5,2.3,2,3.7c0.4,1.4,0.7,3,0.7,4.8c0,1.8-0.3,3.5-0.8,4.9c-0.5,1.5-1.3,2.7-2.3,3.7c-1,1-2.2,1.8-3.6,2.3
			c-1.4,0.5-2.9,0.8-4.7,0.8c-1.9,0-3.5-0.1-5-0.4c-1.4-0.3-2.6-0.5-3.6-0.8V6.1l4-0.7V17.6z M239.9,35.6c0.4,0.1,1,0.2,1.7,0.3
			c0.7,0.1,1.7,0.2,2.8,0.2c2.2,0,3.9-0.7,5.2-2.1c1.3-1.4,2-3.5,2-6.1c0-1.2-0.1-2.2-0.3-3.3c-0.2-1-0.6-1.9-1.1-2.6
			c-0.5-0.7-1.2-1.3-2-1.7c-0.8-0.4-1.8-0.6-3-0.6c-1.1,0-2.1,0.2-3,0.6c-0.9,0.4-1.6,0.8-2.1,1.2V35.6z"/>
	</g>
	<g>
		<path class="st2" d="M74.5,57c-0.5,0-1-0.1-1.4-0.3c-0.4-0.2-0.8-0.4-1.1-0.7c-0.3-0.3-0.5-0.7-0.7-1.2c-0.2-0.5-0.2-1-0.2-1.6
			s0.1-1.2,0.3-1.6c0.2-0.5,0.4-0.9,0.8-1.2c0.3-0.3,0.7-0.6,1.1-0.7c0.4-0.2,0.9-0.3,1.4-0.3c0.3,0,0.6,0,0.8,0.1
			c0.2,0,0.5,0.1,0.6,0.1s0.3,0.1,0.4,0.2s0.2,0.1,0.2,0.1l-0.3,0.9c-0.1,0-0.2-0.1-0.3-0.1c-0.1,0-0.3-0.1-0.4-0.1
			c-0.2,0-0.3-0.1-0.5-0.1c-0.2,0-0.4,0-0.5,0c-0.4,0-0.7,0.1-1.1,0.2c-0.3,0.1-0.6,0.3-0.8,0.6c-0.2,0.3-0.4,0.6-0.5,0.9
			s-0.2,0.8-0.2,1.2c0,0.4,0.1,0.8,0.2,1.2c0.1,0.4,0.3,0.7,0.5,0.9c0.2,0.3,0.5,0.5,0.8,0.6c0.3,0.1,0.7,0.2,1.1,0.2
			c0.5,0,0.9,0,1.2-0.1c0.3-0.1,0.5-0.2,0.7-0.3l0.3,0.9c0,0-0.1,0.1-0.3,0.1c-0.1,0.1-0.3,0.1-0.5,0.2c-0.2,0-0.4,0.1-0.7,0.1
			C75.1,57,74.8,57,74.5,57z"/>
		<path class="st2" d="M86,53.8c0.1,0.1,0.3,0.3,0.4,0.6c0.2,0.2,0.4,0.5,0.5,0.8c0.2,0.3,0.4,0.6,0.5,0.9s0.3,0.6,0.5,0.9h-1.1
			c-0.1-0.3-0.3-0.5-0.5-0.8c-0.2-0.3-0.3-0.5-0.5-0.8c-0.2-0.3-0.3-0.5-0.5-0.7c-0.2-0.2-0.3-0.4-0.5-0.6c-0.1,0-0.2,0-0.3,0
			c-0.1,0-0.2,0-0.3,0h-0.9v2.9h-1v-7.3c0.3-0.1,0.6-0.1,1-0.1c0.4,0,0.7,0,1,0c1,0,1.8,0.2,2.4,0.6c0.5,0.4,0.8,1,0.8,1.7
			c0,0.5-0.1,0.9-0.4,1.3C86.9,53.3,86.5,53.6,86,53.8z M84.5,50.3c-0.4,0-0.8,0-1,0v2.8h0.7c0.4,0,0.7,0,1-0.1
			c0.3,0,0.5-0.1,0.7-0.2c0.2-0.1,0.3-0.2,0.5-0.4c0.1-0.2,0.2-0.4,0.2-0.7c0-0.3-0.1-0.5-0.2-0.7s-0.3-0.3-0.4-0.4
			c-0.2-0.1-0.4-0.2-0.6-0.2C85,50.3,84.7,50.3,84.5,50.3z"/>
		<path class="st2" d="M93.6,56.9v-7.4h4.5v0.9h-3.5v2.2h3.1v0.9h-3.1V56h3.7v0.9H93.6z"/>
		<path class="st2" d="M109.1,56.9c-0.1-0.3-0.2-0.6-0.3-0.9c-0.1-0.3-0.2-0.6-0.3-0.9h-3.3l-0.7,1.9h-1.1c0.3-0.8,0.6-1.5,0.8-2.2
			c0.2-0.7,0.5-1.3,0.7-1.9c0.2-0.6,0.5-1.2,0.7-1.7c0.2-0.5,0.5-1.1,0.7-1.6h0.9c0.3,0.5,0.5,1.1,0.7,1.6c0.2,0.5,0.5,1.1,0.7,1.7
			s0.5,1.2,0.7,1.9c0.2,0.7,0.5,1.4,0.8,2.2H109.1z M108.1,54.1c-0.2-0.6-0.5-1.2-0.7-1.8c-0.2-0.6-0.5-1.1-0.7-1.7
			c-0.2,0.5-0.5,1.1-0.7,1.7c-0.2,0.6-0.4,1.2-0.7,1.8H108.1z"/>
		<path class="st2" d="M120.6,49.5v0.9h-2.3v6.5h-1v-6.5h-2.3v-0.9H120.6z"/>
		<path class="st2" d="M126.2,49.5h1v7.4h-1V49.5z"/>
		<path class="st2" d="M139.5,49.5c-0.3,0.8-0.5,1.5-0.8,2.2c-0.2,0.7-0.5,1.3-0.7,1.9c-0.2,0.6-0.5,1.2-0.7,1.7
			c-0.2,0.5-0.5,1.1-0.7,1.6h-1c-0.2-0.5-0.5-1.1-0.7-1.6c-0.2-0.5-0.5-1.1-0.7-1.7c-0.2-0.6-0.5-1.2-0.7-1.9
			c-0.2-0.7-0.5-1.4-0.8-2.2h1.1c0.4,1.1,0.8,2.2,1.1,3.2s0.7,2,1.1,2.9c0.4-0.9,0.8-1.9,1.1-2.9c0.4-1,0.7-2.1,1.1-3.2H139.5z"/>
		<path class="st2" d="M144.9,56.9v-7.4h4.5v0.9H146v2.2h3.1v0.9H146V56h3.7v0.9H144.9z"/>
		<path class="st0" d="M166.5,51.9c-0.3,1-0.6,1.8-0.9,2.6c-0.3,0.8-0.6,1.6-0.9,2.4h-1c-0.4-1.1-0.7-2.2-1-3.4
			c-0.3-1.2-0.6-2.5-0.8-3.9h1.1c0.1,0.6,0.2,1.1,0.3,1.7s0.2,1.1,0.3,1.6c0.1,0.5,0.2,1,0.3,1.5s0.2,0.9,0.4,1.3
			c0.3-0.7,0.6-1.6,0.9-2.5s0.6-1.8,0.9-2.8h0.9c0.3,1,0.6,1.9,0.9,2.8c0.3,0.9,0.6,1.7,0.9,2.5c0.1-0.4,0.2-0.8,0.3-1.3
			c0.1-0.5,0.2-1,0.3-1.5c0.1-0.5,0.2-1.1,0.3-1.6c0.1-0.6,0.2-1.1,0.3-1.7h1.1c-0.3,1.4-0.5,2.7-0.8,3.9c-0.3,1.2-0.6,2.4-1,3.4h-1
			c-0.3-0.8-0.6-1.6-0.9-2.4C167.1,53.7,166.8,52.8,166.5,51.9z"/>
		<path class="st0" d="M176.5,53.2c0-0.6,0.1-1.2,0.3-1.7c0.2-0.5,0.4-0.9,0.8-1.2c0.3-0.3,0.7-0.6,1.1-0.7c0.4-0.2,0.9-0.2,1.4-0.2
			c0.5,0,0.9,0.1,1.3,0.2c0.4,0.2,0.8,0.4,1.1,0.7c0.3,0.3,0.6,0.7,0.8,1.2c0.2,0.5,0.3,1,0.3,1.7s-0.1,1.2-0.3,1.7
			s-0.4,0.9-0.8,1.2c-0.3,0.3-0.7,0.6-1.1,0.7c-0.4,0.2-0.9,0.2-1.3,0.2c-0.5,0-0.9-0.1-1.4-0.2c-0.4-0.2-0.8-0.4-1.1-0.7
			c-0.3-0.3-0.6-0.7-0.8-1.2C176.6,54.4,176.5,53.8,176.5,53.2z M177.6,53.2c0,0.4,0.1,0.9,0.2,1.2c0.1,0.4,0.3,0.7,0.5,0.9
			c0.2,0.3,0.5,0.5,0.8,0.6c0.3,0.1,0.6,0.2,1,0.2c0.4,0,0.7-0.1,1-0.2c0.3-0.1,0.6-0.3,0.8-0.6c0.2-0.3,0.4-0.6,0.5-0.9
			c0.1-0.4,0.2-0.8,0.2-1.2s-0.1-0.9-0.2-1.2c-0.1-0.4-0.3-0.7-0.5-0.9c-0.2-0.3-0.5-0.5-0.8-0.6c-0.3-0.1-0.6-0.2-1-0.2
			c-0.4,0-0.7,0.1-1,0.2c-0.3,0.1-0.6,0.3-0.8,0.6c-0.2,0.3-0.4,0.6-0.5,0.9C177.6,52.3,177.6,52.7,177.6,53.2z"/>
		<path class="st0" d="M193.1,53.8c0.1,0.1,0.3,0.3,0.4,0.6c0.2,0.2,0.4,0.5,0.5,0.8c0.2,0.3,0.4,0.6,0.5,0.9s0.3,0.6,0.5,0.9H194
			c-0.1-0.3-0.3-0.5-0.5-0.8c-0.2-0.3-0.3-0.5-0.5-0.8c-0.2-0.3-0.3-0.5-0.5-0.7c-0.2-0.2-0.3-0.4-0.5-0.6c-0.1,0-0.2,0-0.3,0
			s-0.2,0-0.3,0h-0.9v2.9h-1v-7.3c0.3-0.1,0.6-0.1,1-0.1c0.4,0,0.7,0,1,0c1,0,1.8,0.2,2.4,0.6c0.5,0.4,0.8,1,0.8,1.7
			c0,0.5-0.1,0.9-0.4,1.3C194,53.3,193.7,53.6,193.1,53.8z M191.6,50.3c-0.4,0-0.8,0-1,0v2.8h0.7c0.4,0,0.7,0,1-0.1
			c0.3,0,0.5-0.1,0.7-0.2c0.2-0.1,0.3-0.2,0.5-0.4c0.1-0.2,0.2-0.4,0.2-0.7c0-0.3-0.1-0.5-0.2-0.7s-0.3-0.3-0.4-0.4
			c-0.2-0.1-0.4-0.2-0.6-0.2S191.9,50.3,191.6,50.3z"/>
		<path class="st0" d="M206.8,53.2c0,0.6-0.1,1.2-0.3,1.7c-0.2,0.5-0.5,0.9-0.8,1.2c-0.4,0.3-0.8,0.5-1.3,0.7
			c-0.5,0.2-1.1,0.2-1.7,0.2c-0.3,0-0.6,0-1,0c-0.4,0-0.7-0.1-1-0.1v-7.2c0.3-0.1,0.6-0.1,1-0.1c0.4,0,0.7,0,1,0
			c0.6,0,1.2,0.1,1.7,0.2c0.5,0.2,0.9,0.4,1.3,0.7c0.4,0.3,0.6,0.7,0.8,1.2C206.7,52,206.8,52.5,206.8,53.2z M202.8,56
			c1,0,1.7-0.3,2.2-0.8c0.5-0.5,0.7-1.2,0.7-2.1s-0.2-1.6-0.7-2.1c-0.5-0.5-1.2-0.8-2.2-0.8c-0.3,0-0.5,0-0.7,0c-0.2,0-0.3,0-0.3,0
			V56c0.1,0,0.2,0,0.3,0C202.2,56,202.5,56,202.8,56z"/>
		<path class="st2" d="M214.5,56.1c1.1,0,1.6-0.4,1.6-1.1c0-0.2,0-0.4-0.1-0.6c-0.1-0.2-0.2-0.3-0.4-0.4c-0.2-0.1-0.3-0.2-0.6-0.3
			s-0.4-0.2-0.7-0.3c-0.3-0.1-0.5-0.2-0.8-0.3c-0.2-0.1-0.5-0.3-0.6-0.4c-0.2-0.2-0.3-0.3-0.4-0.6c-0.1-0.2-0.2-0.5-0.2-0.8
			c0-0.6,0.2-1.1,0.7-1.5c0.4-0.4,1-0.5,1.8-0.5c0.4,0,0.9,0,1.2,0.1c0.4,0.1,0.6,0.2,0.8,0.3l-0.3,0.8c-0.1-0.1-0.4-0.2-0.7-0.3
			c-0.3-0.1-0.6-0.1-1-0.1c-0.2,0-0.4,0-0.6,0.1c-0.2,0-0.3,0.1-0.4,0.2c-0.1,0.1-0.2,0.2-0.3,0.3c-0.1,0.1-0.1,0.3-0.1,0.5
			c0,0.2,0,0.4,0.1,0.5c0.1,0.1,0.2,0.3,0.3,0.4c0.1,0.1,0.3,0.2,0.5,0.3c0.2,0.1,0.4,0.2,0.6,0.3c0.3,0.1,0.6,0.3,0.9,0.4
			c0.3,0.1,0.5,0.3,0.7,0.5c0.2,0.2,0.3,0.4,0.5,0.6c0.1,0.2,0.2,0.5,0.2,0.9c0,0.6-0.2,1.1-0.7,1.5c-0.5,0.3-1.1,0.5-2,0.5
			c-0.3,0-0.6,0-0.8-0.1c-0.2,0-0.5-0.1-0.7-0.1c-0.2-0.1-0.4-0.1-0.5-0.2c-0.1-0.1-0.2-0.1-0.3-0.2l0.3-0.9
			c0.2,0.1,0.4,0.2,0.7,0.3S214,56.1,214.5,56.1z"/>
		<path class="st2" d="M227.6,49.5h1v7.4h-1v-3.4h-3.6v3.4h-1v-7.4h1v3.1h3.6V49.5z"/>
		<path class="st2" d="M234.6,53.2c0-0.6,0.1-1.2,0.3-1.7c0.2-0.5,0.4-0.9,0.8-1.2c0.3-0.3,0.7-0.6,1.1-0.7c0.4-0.2,0.9-0.2,1.4-0.2
			c0.5,0,0.9,0.1,1.3,0.2c0.4,0.2,0.8,0.4,1.1,0.7c0.3,0.3,0.6,0.7,0.8,1.2c0.2,0.5,0.3,1,0.3,1.7s-0.1,1.2-0.3,1.7
			c-0.2,0.5-0.4,0.9-0.8,1.2c-0.3,0.3-0.7,0.6-1.1,0.7c-0.4,0.2-0.9,0.2-1.3,0.2c-0.5,0-0.9-0.1-1.4-0.2c-0.4-0.2-0.8-0.4-1.1-0.7
			c-0.3-0.3-0.6-0.7-0.8-1.2C234.7,54.4,234.6,53.8,234.6,53.2z M235.7,53.2c0,0.4,0.1,0.9,0.2,1.2c0.1,0.4,0.3,0.7,0.5,0.9
			c0.2,0.3,0.5,0.5,0.8,0.6c0.3,0.1,0.6,0.2,1,0.2s0.7-0.1,1-0.2c0.3-0.1,0.6-0.3,0.8-0.6c0.2-0.3,0.4-0.6,0.5-0.9
			c0.1-0.4,0.2-0.8,0.2-1.2s-0.1-0.9-0.2-1.2c-0.1-0.4-0.3-0.7-0.5-0.9c-0.2-0.3-0.5-0.5-0.8-0.6c-0.3-0.1-0.6-0.2-1-0.2
			s-0.7,0.1-1,0.2c-0.3,0.1-0.6,0.3-0.8,0.6c-0.2,0.3-0.4,0.6-0.5,0.9C235.7,52.3,235.7,52.7,235.7,53.2z"/>
		<path class="st2" d="M249.6,49.4c1,0,1.8,0.2,2.4,0.6c0.6,0.4,0.8,1,0.8,1.8c0,0.4-0.1,0.8-0.2,1.1c-0.2,0.3-0.4,0.5-0.7,0.7
			c-0.3,0.2-0.6,0.3-1,0.4c-0.4,0.1-0.9,0.1-1.4,0.1h-0.8v2.7h-1v-7.3c0.3-0.1,0.6-0.1,1-0.1C249,49.4,249.3,49.4,249.6,49.4z
			 M249.7,50.3c-0.4,0-0.8,0-1,0v2.9h0.8c0.4,0,0.7,0,1-0.1c0.3,0,0.5-0.1,0.7-0.2c0.2-0.1,0.3-0.3,0.5-0.5c0.1-0.2,0.2-0.4,0.2-0.7
			c0-0.3-0.1-0.5-0.2-0.7c-0.1-0.2-0.3-0.3-0.4-0.4c-0.2-0.1-0.4-0.2-0.7-0.2C250.2,50.3,250,50.3,249.7,50.3z"/>
	</g>
</g>
</svg>
